# xmcd
#
# Track frame offsets:
#	150
#	3427
#	17410
#	28981
#	42288
#	58837
#	70661
#	85695
#	102243
#	115799
#	131921
#	148239
#	161542
#
# Disc length: 2564 seconds
#
# Revision: 1
# Processed by: cddbd v1.5.1PL0 Copyright (c) Steve Scherf et al.
# Submitted via: audiograbber 1.83.01
#
DISCID=ac0a020d
DTITLE=matt king - don't tread on me
DYEAR=2003
DGENRE=Country
TTITLE0=prologue
TTITLE1=shanty town
TTITLE2=zeke's wheel
TTITLE3=bring me some water
TTITLE4=american dream
TTITLE5=stumblin' block
TTITLE6=like coming home
TTITLE7=eden's apple
TTITLE8=the best things in life
TTITLE9=before it's gone
TTITLE10=sacred
TTITLE11=hardluck road
TTITLE12=epilogue
EXTD=
EXTT0=
EXTT1=
EXTT2=
EXTT3=
EXTT4=
EXTT5=
EXTT6=
EXTT7=
EXTT8=
EXTT9=
EXTT10=
EXTT11=
EXTT12=
PLAYORDER=
